<?xml version="1.0" standalone="no"?>
<!DOCTYPE svg PUBLIC "-//W3C//DTD SVG 20010904//EN"
 "http://www.w3.org/TR/2001/REC-SVG-20010904/DTD/svg10.dtd">
<svg version="1.0" xmlns="http://www.w3.org/2000/svg"
 width="512.000000pt" height="512.000000pt" viewBox="0 0 512.000000 512.000000"
 preserveAspectRatio="xMidYMid meet">
<metadata>
Created by potrace 1.14, written by Peter Selinger 2001-2017
</metadata>
<g transform="translate(0.000000,512.000000) scale(0.100000,-0.100000)"
fill="#000000" stroke="none">
<path d="M2324 5110 c-84 -9 -104 -19 -139 -65 -23 -29 -28 -49 -35 -132 -15
-168 -57 -263 -169 -374 -124 -124 -231 -165 -411 -156 -159 8 -246 44 -376
154 -66 57 -68 58 -129 58 -60 0 -63 -1 -134 -59 -173 -142 -384 -372 -395
-431 -10 -51 9 -106 50 -145 100 -96 164 -237 172 -377 9 -171 -42 -307 -159
-424 -105 -106 -232 -157 -432 -175 -80 -7 -116 -31 -142 -96 -21 -53 -32
-404 -17 -547 15 -146 48 -175 220 -196 164 -20 267 -70 369 -178 199 -211
202 -539 6 -758 -90 -101 -103 -156 -55 -228 79 -117 348 -386 435 -433 62
-35 114 -21 194 52 68 63 123 95 216 128 102 36 261 38 359 4 165 -57 294
-187 355 -356 8 -23 18 -89 23 -148 9 -131 25 -163 95 -198 50 -25 51 -25 325
-25 309 1 333 5 382 66 26 33 31 48 38 136 16 181 74 299 201 408 111 96 218
130 379 122 159 -8 246 -44 376 -154 66 -57 68 -58 129 -58 60 0 63 1 134 59
173 142 384 372 395 431 10 53 -9 106 -53 149 -102 100 -161 229 -168 371 -10
179 39 310 162 432 111 109 225 157 398 167 97 6 134 25 165 88 22 43 24 63
29 250 6 244 -6 388 -34 426 -33 45 -77 63 -186 77 -109 15 -154 28 -234 69
-65 32 -162 122 -204 187 -134 210 -110 492 58 680 87 97 102 153 60 221 -53
87 -242 283 -396 410 -80 66 -148 60 -237 -22 -117 -106 -235 -152 -394 -154
-172 -2 -279 41 -396 158 -109 109 -151 203 -163 366 -13 170 -43 205 -188
220 -102 11 -375 11 -479 0z m456 -1094 c178 -30 312 -74 469 -156 132 -70
240 -150 350 -261 282 -281 431 -640 431 -1039 0 -254 -52 -464 -170 -689 -70
-132 -150 -240 -261 -350 -281 -282 -640 -431 -1039 -431 -254 0 -464 52 -689
170 -132 70 -240 150 -350 261 -282 281 -431 640 -431 1039 0 254 52 464 170
689 70 132 150 240 261 350 222 223 493 362 809 416 103 17 346 18 450 1z"/>
<path d="M1880 3439 c-54 -24 -105 -71 -130 -119 -10 -19 -41 -93 -70 -165
-29 -71 -57 -134 -61 -139 -5 -6 -32 -3 -69 7 -33 9 -69 17 -80 17 -33 0 -75
-26 -88 -55 -17 -36 -15 -140 3 -175 19 -36 66 -70 98 -70 l25 0 -24 -64 c-47
-131 -54 -203 -54 -573 0 -376 1 -381 59 -422 26 -19 44 -21 151 -21 107 0
125 2 151 21 46 33 59 68 59 164 l0 85 710 0 710 0 0 -96 0 -96 39 -39 39 -39
127 0 c112 0 130 2 156 21 58 41 59 47 59 412 0 361 -8 444 -55 578 l-24 69
26 0 c32 0 79 34 98 70 18 35 20 139 3 175 -13 29 -55 55 -88 55 -12 0 -46 -7
-76 -16 -31 -9 -60 -14 -67 -11 -7 2 -41 75 -76 160 -71 175 -104 222 -183
261 l-52 26 -635 0 c-618 0 -637 -1 -681 -21z m1241 -89 c19 -5 48 -23 63 -39
33 -35 226 -495 226 -540 0 -20 -7 -34 -19 -41 -30 -15 -1653 -14 -1669 2 -24
24 -10 77 84 308 101 246 129 292 189 309 42 13 1081 13 1126 1z m-1011 -920
c17 -17 20 -33 20 -119 0 -77 -4 -103 -16 -115 -13 -14 -47 -16 -214 -16 -241
0 -230 -6 -230 137 0 137 -7 133 230 133 177 0 191 -1 210 -20z m1308 4 c20
-14 22 -23 22 -123 0 -70 -4 -111 -12 -119 -17 -17 -409 -17 -426 0 -13 13
-17 215 -4 234 13 20 35 22 217 23 148 1 185 -2 203 -15z"/>
</g>
</svg>
